<?xml version="1.0" encoding="utf-8"?>
<!-- Uploaded to: SVG Repo, www.svgrepo.com, Generator: SVG Repo Mixer Tools -->
<!DOCTYPE svg PUBLIC "-//W3C//DTD SVG 1.1//EN" "http://www.w3.org/Graphics/SVG/1.1/DTD/svg11.dtd">
<svg xmlns="http://www.w3.org/2000/svg" xmlns:xlink="http://www.w3.org/1999/xlink" version="1.1" id="Layer_1"  width="512" height="512" viewBox="0 0 512 512" enable-background="new 0 0 512 512" xml:space="preserve">
<g id="flour">
	<path fill="#FFD2A6" d="M440.544,501.323c-29,0-82.202-20.515-82.733-20.718l-1.859-0.719H156.056l-1.867,0.719   c-0.531,0.203-53.772,20.718-82.733,20.718c-8.14,0-10.382-1.734-10.476-1.797c-1.234-1.141-3.523-11.296,7.828-40.296   c7.812-19.969,17.867-38.203,17.969-38.391l2.906-5.249l-2.976-5.203c-5.766-10.094-11.898-67.64-11.898-154.372   c0-86.733,6.133-144.278,11.898-154.372l2.976-5.203l-2.906-5.25c-0.102-0.188-10.234-18.578-18.039-38.562   c-11.273-28.875-8.984-38.984-7.757-40.124c0.234-0.188,2.516-1.828,10.656-1.828c29.046,0,82.061,20.249,82.592,20.452   l1.844,0.703H355.92l1.859-0.703c0.531-0.203,53.593-20.452,82.593-20.452c8.124,0,10.405,1.641,10.64,1.828   c1.234,1.14,3.516,11.25-7.749,40.124c-7.812,19.984-17.938,38.374-18.047,38.562l-2.906,5.25l2.984,5.203   c5.766,10.094,11.891,67.639,11.891,154.372c0,86.732-6.125,144.278-11.891,154.372l-2.984,5.203l2.906,5.249   c0.109,0.188,10.234,18.578,18.047,38.562c11.265,28.875,8.983,38.983,7.749,40.124   C450.793,499.698,448.543,501.323,440.544,501.323L440.544,501.323z"/>
	<path fill="#F4BE8E" d="M434.56,96.362c0,0,42.404-76.639,23.155-92.154c-3.719-3-9.858-4.203-17.343-4.203   c-31.359,0-86.421,21.156-86.421,21.156H158.048c0,0-55.054-21.156-86.413-21.156c-7.492,0-13.632,1.203-17.351,4.203   c-19.25,15.515,23.164,92.154,23.164,92.154c-17.742,31.031-17.742,288.261,0,319.307c0,0-42.413,76.64-23.164,92.154   c3.688,2.969,9.765,4.172,17.171,4.172c31.335,0,86.592-21.452,86.592-21.452h195.903c0,0,55.265,21.452,86.593,21.452   c7.406,0,13.483-1.203,17.171-4.172c19.249-15.515-23.171-92.154-23.171-92.154C452.293,384.623,452.293,127.393,434.56,96.362z    M441.185,490.652c-0.203,0.016-0.422,0.016-0.641,0.016c-22.359,0-64.531-14.438-78.874-20l-3.734-1.453h-3.984H158.048h-3.992   l-3.727,1.453c-14.328,5.562-56.444,20-78.874,20c-0.219,0-0.43,0-0.641-0.016c0.609-5.312,2.844-15.625,10.336-33.484   c7.031-16.766,14.882-31.031,14.96-31.156l5.812-10.499l-5.875-10.281c-0.406-0.906-4.414-10.688-7.453-51.671   c-2.016-27.188-3.125-61.827-3.125-97.545c0-35.718,1.109-70.358,3.125-97.545c3.039-40.968,7.046-50.765,7.453-51.671   l5.875-10.281l-5.812-10.5c-0.078-0.141-7.781-14.093-14.82-30.827c-7.617-18.094-9.875-28.5-10.477-33.843   c0.258-0.016,0.531-0.016,0.82-0.016c22.406,0,64.46,14.25,78.764,19.75l3.695,1.422h3.953h195.903h3.953l3.688-1.422   c14.312-5.5,56.358-19.75,78.78-19.75c0.281,0,0.547,0,0.812,0.016c-0.594,5.312-2.828,15.609-10.344,33.515   c-7.031,16.765-14.875,31.03-14.953,31.155l-5.812,10.5l5.875,10.266c0.406,0.922,4.422,10.703,7.453,51.687   c2.016,27.187,3.125,61.827,3.125,97.545c0,35.718-1.109,70.357-3.125,97.545c-3.047,40.983-7.047,50.765-7.453,51.687   l-5.875,10.266l5.812,10.499c0.078,0.125,7.781,14.094,14.828,30.828C438.31,474.902,440.575,485.309,441.185,490.652z"/>
	<g>
		<rect x="149.337" y="128.002" fill="#FB6D51" width="213.317" height="277.323"/>
	</g>
	<path fill="#424953" d="M309.327,181.345c0-5.89-4.766-10.671-10.656-10.671s-10.672,4.781-10.672,10.671l0,0v15.953   l-21.335,19.297v-24.578c0-0.016,0-0.016,0-0.016l0,0v-0.438h-0.023c-0.234-5.688-4.898-10.219-10.641-10.219   c-5.742,0-10.414,4.531-10.648,10.219h-0.023v0.438l0,0c0,0,0,0,0,0.016v24.266L224,197.251v-15.906   c0-5.89-4.773-10.671-10.664-10.671c-5.891,0-10.672,4.781-10.672,10.671l0,0v132.826l42.663,37.233v47.077h21.336v-46.483h0.055   l42.608-37.874V181.345L309.327,181.345z M266.688,245.328l21.312-19.265v24.562l-21.335,19.297v-24.594H266.688z M245.328,244.875   v24.734L224,250.578v-24.734L245.328,244.875z M224,304.483v-25.312l21.328,19.03v24.89L224,304.483z M266.664,323.498v-24.827   h0.023l21.312-19.28v25.155L266.664,323.498z"/>
</g>
</svg>