<?xml version="1.0" encoding="iso-8859-1"?>
<!-- Uploaded to: SVG Repo, www.svgrepo.com, Generator: SVG Repo Mixer Tools -->
<svg height="800px" width="800px" version="1.1" id="Layer_1" xmlns="http://www.w3.org/2000/svg" xmlns:xlink="http://www.w3.org/1999/xlink" 
	 viewBox="0 0 512.001 512.001" xml:space="preserve">
<path style="fill:#CF8F3D;" d="M423.184,484.174H256H88.817c-108.99,0-145.547-244.33,53.806-309.625
	c25.988-8.513,53.188-12.747,80.531-13.175L256,160.857l32.847,0.515c27.344,0.43,54.542,4.663,80.531,13.175
	C568.731,239.844,532.174,484.174,423.184,484.174z"/>
<path style="fill:#B76700;" d="M502.995,415.529c-13.813,40.139-42.585,68.645-79.811,68.645H256H88.817
	c-37.226,0-65.998-28.506-79.811-68.645C81.113,402.305,165.63,394.694,256,394.694S430.887,402.305,502.995,415.529z"/>
<path style="fill:#FFBB5E;" d="M177.235,259.89c-1.761,2.025-4.228,3.061-6.709,3.061c-2.078,0-4.166-0.727-5.855-2.209
	c-35.105-30.817-28.445-88.84-0.511-121.64c11.41-13.393,18.106-31.712,18.371-50.259c0.27-18.882-6.073-34.98-17.861-45.33
	c-3.703-3.251-4.083-8.904-0.847-12.625c3.236-3.721,8.861-4.103,12.564-0.851c15.792,13.864,24.298,34.84,23.95,59.064
	c-0.325,22.658-8.579,45.125-22.649,61.639c-11.691,13.728-18.685,32.219-19.184,50.729c-0.511,18.96,5.839,35.224,17.882,45.796
	C180.091,250.515,180.47,256.168,177.235,259.89z M232.039,247.264c-12.044-10.573-18.395-26.837-17.884-45.796
	c0.5-18.51,7.493-37.001,19.189-50.729c14.069-16.514,22.322-38.981,22.647-61.639c0.346-24.223-8.16-45.2-23.952-59.064
	c-3.703-3.251-9.328-2.869-12.564,0.851s-2.856,9.374,0.847,12.625c11.788,10.349,18.131,26.447,17.861,45.33
	c-0.265,18.549-6.96,36.867-18.367,50.258c-27.941,32.797-34.603,90.819,0.508,121.641c1.688,1.481,3.777,2.209,5.855,2.209
	c2.481,0,4.95-1.036,6.709-3.061C236.121,256.168,235.742,250.515,232.039,247.264z"/>
<path style="fill:#874D20;" d="M374.741,262.111c-2.315,0-4.627-0.902-6.372-2.697c-3.435-3.536-3.367-9.202,0.151-12.653
	l51.834-50.851c3.518-3.452,9.156-3.385,12.592,0.152c3.435,3.536,3.367,9.202-0.151,12.653l-51.834,50.851
	C379.229,261.264,376.984,262.111,374.741,262.111z M473.47,229.571c-3.459-3.511-9.098-3.539-12.592-0.061l-89.212,88.784
	c-3.494,3.477-3.522,9.143-0.061,12.654c1.741,1.768,4.034,2.651,6.328,2.651c2.264,0,4.529-0.863,6.265-2.59l89.212-88.784
	C476.903,238.748,476.931,233.083,473.47,229.571z M498.209,276.052c-3.507-3.465-9.145-3.417-12.592,0.106l-46.375,47.39
	c-3.448,3.524-3.401,9.189,0.106,12.654c1.734,1.713,3.989,2.568,6.243,2.568c2.304,0,4.607-0.894,6.35-2.674l46.375-47.39
	C501.763,285.182,501.716,279.517,498.209,276.052z"/>
</svg>