<?xml version="1.0" encoding="UTF-8" standalone="no"?>
<svg
   version="1.1"
   x="0"
   y="0"
   width="128"
   height="128"
   viewBox="0 0 128 128"
   id="svg392"
   xmlns:inkscape="http://www.inkscape.org/namespaces/inkscape"
   xmlns:sodipodi="http://sodipodi.sourceforge.net/DTD/sodipodi-0.dtd"
   xmlns="http://www.w3.org/2000/svg"
   xmlns:svg="http://www.w3.org/2000/svg">
  <defs
     id="defs5">
    <radialGradient
       id="Gradient_1"
       gradientUnits="userSpaceOnUse"
       cx="229.63"
       cy="280.58"
       r="192.279">
      <stop
         offset="0"
         stop-color="#A05D39"
         id="stop1" />
      <stop
         offset="1"
         stop-color="#7D492C"
         id="stop2" />
    </radialGradient>
    <radialGradient
       id="Gradient_2"
       gradientUnits="userSpaceOnUse"
       cx="222.082"
       cy="214.763"
       r="218.454">
      <stop
         offset="0"
         stop-color="#EBC489"
         id="stop3" />
      <stop
         offset="0.896"
         stop-color="#EBC489"
         id="stop4" />
      <stop
         offset="1"
         stop-color="#B39370"
         id="stop5" />
    </radialGradient>
    <clipPath
       id="Clip_1">
      <path
         d="M227.562,-0.002 C101.883,-0.002 -0,101.881 -0,227.56 L-0,227.56 C-0,254.373 4.672,280.083 13.18,303.959 L13.18,303.959 C50.594,378.404 127.601,429.529 216.594,429.529 L216.594,429.529 C342.274,429.529 444.164,327.638 444.164,201.959 L444.164,201.959 C444.164,175.154 439.484,149.435 430.969,125.552 L430.969,125.552 C393.563,51.107 316.554,-0.002 227.562,-0.002 z"
         id="path5" />
    </clipPath>
  </defs>
  <g
     id="Layer_1"
     transform="scale(0.28538553)">
    <path
       d="m 437.313,192.201 c 0,125.687 -100.509,227.57 -224.477,227.57 v 0 c -87.781,0 -163.742,-51.125 -200.641,-125.57 v 0 c 30.977,88.102 113.945,151.164 211.469,151.164 v 0 c 123.961,0 224.461,-101.883 224.461,-227.554 v 0 c 0,-36.696 -8.609,-71.321 -23.82,-102.016 v 0 c 8.398,23.89 13.008,49.601 13.008,76.406 z"
       fill="url(#Gradient_1)"
       id="path6"
       style="fill:url(#Gradient_1)" />
    <g
       clip-path="url(#Clip_1)"
       id="g7">
      <path
         d="m 227.674,0 c 87.286,0.432 163.045,48.764 203.295,125.552 8.515,23.883 13.195,49.602 13.195,76.407 0,125.679 -101.89,227.57 -227.57,227.57 -88.993,0 -166,-51.125 -203.414,-125.57 C 4.672,280.083 0,254.373 0,227.56 0.486,101.256 101.845,1.588 227.404,0 Z"
         fill="url(#Gradient_2)"
         id="path7"
         style="fill:url(#Gradient_2)" />
    </g>
    <g
       id="g87">
      <path
         d="m 433.18,231.529 c -1.211,20.969 -22.703,37.305 -30.023,55.867 -7.602,19.242 -3.211,45.578 -16.219,61.211 -13.117,15.781 -40.25,16.68 -57.656,27.703 -17.25,10.93 -29.329,34.914 -49.586,40.133 -19.555,5.039 -41.961,-9.844 -63.243,-11.078 -21.273,-1.227 -45.25,10.961 -64.093,3.711 C 132.836,401.56 123.618,376.334 107.75,363.482 91.719,350.521 64.875,346.498 53.657,329.31 42.547,312.287 49.946,286.638 44.618,266.638 39.477,247.357 20.032,228.646 21.243,207.67 c 1.21,-20.969 22.695,-37.305 30.031,-55.868 7.586,-19.25 3.203,-45.586 16.203,-61.21 13.133,-15.782 40.258,-16.68 57.672,-27.704 17.25,-10.929 29.328,-34.914 49.586,-40.132 19.547,-5.039 41.953,9.843 63.234,11.078 21.274,1.226 45.242,-10.961 64.086,-3.711 19.531,7.531 28.75,32.742 44.617,45.586 16.039,12.968 42.875,16.984 54.086,34.179 11.11,17.024 3.719,42.672 9.039,62.664 5.149,19.289 24.602,38 23.383,58.977"
         fill="#d68f47"
         id="path8" />
      <path
         d="m 421.688,216.576 c 0,20.234 -19.469,37.148 -25.407,55.414 -6.14,18.922 -0.547,44.008 -12.015,59.766 -11.578,15.906 -37.243,18.281 -53.149,29.859 -15.758,11.469 -25.883,35.203 -44.805,41.359 -18.265,5.93 -40.328,-7.14 -60.561,-7.14 -20.243,0 -42.306,13.07 -60.571,7.14 -18.922,-6.156 -29.054,-29.89 -44.804,-41.359 C 104.461,350.037 78.797,347.662 67.218,331.756 55.757,315.998 61.36,290.912 55.21,271.99 49.282,253.724 29.812,236.81 29.812,216.576 c 0,-20.242 19.47,-37.148 25.398,-55.406 6.15,-18.938 0.547,-44.024 12.017,-59.782 11.577,-15.906 37.241,-18.281 53.149,-29.859 15.75,-11.453 25.882,-35.203 44.812,-41.351 18.257,-5.922 40.32,7.132 60.563,7.132 20.233,0 42.296,-13.054 60.561,-7.132 18.93,6.148 29.047,29.898 44.805,41.359 15.914,11.57 41.578,13.945 53.149,29.867 11.468,15.75 5.875,40.836 12.015,59.766 5.938,18.258 25.407,35.164 25.407,55.406"
         fill="#f5f1a4"
         id="path9" />
      <path
         d="m 323.344,133.591 c -17.516,18.102 -41.234,23.57 -41.234,23.57 0,0 4.695,-23.882 22.218,-41.984 17.532,-18.102 41.25,-23.578 41.25,-23.578 0,0 -4.695,23.883 -22.234,41.992"
         fill="#0d5d35"
         id="path10" />
      <path
         d="M 104.578,201.771 C 81.812,190.99 69.015,170.287 69.015,170.287 c 0,0 24.133,-3.219 46.907,7.562 22.765,10.789 35.562,31.492 35.562,31.492 0,0 -24.125,3.219 -46.906,-7.57"
         fill="#0b8b42"
         id="path11" />
      <path
         d="m 146.117,326.333 c -22.734,10.86 -46.867,7.735 -46.867,7.735 0,0 12.719,-20.766 35.453,-31.625 22.726,-10.867 46.875,-7.735 46.875,-7.735 0,0 -12.727,20.758 -35.461,31.625"
         fill="#0d5d35"
         id="path12" />
      <path
         d="m 328.344,238.084 c -23.352,9.453 -47.25,4.844 -47.25,4.844 0,0 13.969,-19.938 37.328,-29.391 23.352,-9.437 47.258,-4.844 47.258,-4.844 0,0 -13.969,19.938 -37.336,29.391"
         fill="#0b8b42"
         id="path13" />
      <path
         d="m 175.781,116.529 c -13.18,-21.477 -12.609,-45.813 -12.609,-45.813 0,0 21.976,10.477 35.164,31.954 13.195,21.453 12.625,45.804 12.625,45.804 0,0 -21.977,-10.484 -35.18,-31.945"
         fill="#0b8b42"
         id="path14" />
      <path
         d="m 285.727,312.443 c -13.189,-21.461 -12.618,-45.797 -12.618,-45.797 0,0 21.985,10.469 35.172,31.945 13.196,21.454 12.617,45.797 12.617,45.797 0,0 -21.968,-10.476 -35.171,-31.945"
         fill="#0b8b42"
         id="path15" />
      <path
         d="m 259.492,91.599 c 0,16.312 -13.227,29.547 -29.547,29.547 -16.32,0 -29.547,-13.235 -29.547,-29.547 0,-16.312 13.227,-29.547 29.547,-29.547 16.32,0 29.547,13.235 29.547,29.547"
         fill="#ab2430"
         id="path16" />
      <path
         d="m 220.406,79.38 c 0,1.75 -1.422,3.172 -3.172,3.172 -1.75,0 -3.164,-1.422 -3.164,-3.172 0,-1.742 1.414,-3.164 3.164,-3.164 1.75,0 3.172,1.422 3.172,3.164"
         fill="#d08876"
         id="path17" />
      <path
         d="m 233.109,76.216 c 0,1.75 -1.414,3.172 -3.164,3.172 -1.75,0 -3.172,-1.422 -3.172,-3.172 0,-1.75 1.422,-3.164 3.172,-3.164 1.75,0 3.164,1.414 3.164,3.164"
         fill="#d08876"
         id="path18" />
      <path
         d="m 233.117,88.435 c 0,1.742 -1.422,3.164 -3.172,3.164 -1.742,0 -3.164,-1.422 -3.164,-3.164 0,-1.75 1.422,-3.18 3.164,-3.18 1.75,0 3.172,1.43 3.172,3.18"
         fill="#d08876"
         id="path19" />
      <path
         d="m 223,96.919 c 0,1.75 -1.43,3.172 -3.172,3.172 -1.75,0 -3.164,-1.422 -3.164,-3.172 0,-1.75 1.414,-3.172 3.164,-3.172 1.742,0 3.172,1.422 3.172,3.172"
         fill="#d08876"
         id="path20" />
      <path
         d="m 229.945,103.255 c 0,1.75 -1.422,3.164 -3.164,3.164 -1.75,0 -3.172,-1.414 -3.172,-3.164 0,-1.75 1.422,-3.164 3.172,-3.164 1.742,0 3.164,1.414 3.164,3.164"
         fill="#d08876"
         id="path21" />
      <path
         d="m 243.055,96.919 c 0,1.75 -1.43,3.172 -3.172,3.172 -1.75,0 -3.172,-1.422 -3.172,-3.172 0,-1.75 1.422,-3.172 3.172,-3.172 1.742,0 3.172,1.422 3.172,3.172"
         fill="#d08876"
         id="path22" />
      <path
         d="m 246.219,85.255 c 0,1.75 -1.422,3.18 -3.164,3.18 -1.75,0 -3.172,-1.43 -3.172,-3.18 0,-1.742 1.422,-3.164 3.172,-3.164 1.742,0 3.164,1.422 3.164,3.164"
         fill="#d08876"
         id="path23" />
      <path
         d="m 243.055,106.42 c 0,1.757 -1.422,3.171 -3.164,3.171 -1.758,0 -3.172,-1.414 -3.172,-3.171 0,-1.734 1.414,-3.164 3.172,-3.164 1.742,0 3.164,1.43 3.164,3.164"
         fill="#d08876"
         id="path24" />
      <path
         d="m 272.602,192.068 c 0,16.312 -13.228,29.539 -29.548,29.539 -16.32,0 -29.547,-13.227 -29.547,-29.539 0,-16.32 13.227,-29.547 29.547,-29.547 16.32,0 29.548,13.227 29.548,29.547"
         fill="#ab2430"
         id="path25" />
      <path
         d="m 233.516,179.849 c 0,1.75 -1.422,3.172 -3.172,3.172 -1.75,0 -3.172,-1.422 -3.172,-3.172 0,-1.75 1.422,-3.164 3.172,-3.164 1.75,0 3.172,1.414 3.172,3.164"
         fill="#d08876"
         id="path26" />
      <path
         d="m 246.219,176.685 c 0,1.75 -1.422,3.164 -3.164,3.164 -1.758,0 -3.18,-1.414 -3.18,-3.164 0,-1.75 1.422,-3.172 3.18,-3.172 1.742,0 3.164,1.422 3.164,3.172"
         fill="#d08876"
         id="path27" />
      <path
         d="m 246.219,188.888 c 0,1.758 -1.422,3.18 -3.164,3.18 -1.75,0 -3.172,-1.422 -3.172,-3.18 0,-1.742 1.422,-3.164 3.172,-3.164 1.742,0 3.164,1.422 3.164,3.164"
         fill="#d08876"
         id="path28" />
      <path
         d="m 236.102,197.38 c 0,1.758 -1.422,3.172 -3.164,3.172 -1.75,0 -3.172,-1.414 -3.172,-3.172 0,-1.742 1.422,-3.164 3.172,-3.164 1.742,0 3.164,1.422 3.164,3.164"
         fill="#d08876"
         id="path29" />
      <path
         d="m 243.055,203.716 c 0,1.758 -1.43,3.172 -3.172,3.172 -1.75,0 -3.172,-1.414 -3.172,-3.172 0,-1.742 1.422,-3.164 3.172,-3.164 1.742,0 3.172,1.422 3.172,3.164"
         fill="#d08876"
         id="path30" />
      <path
         d="m 256.156,197.38 c 0,1.758 -1.422,3.172 -3.164,3.172 -1.75,0 -3.18,-1.414 -3.18,-3.172 0,-1.742 1.43,-3.164 3.18,-3.164 1.742,0 3.164,1.422 3.164,3.164"
         fill="#d08876"
         id="path31" />
      <path
         d="m 259.328,185.716 c 0,1.758 -1.422,3.172 -3.172,3.172 -1.75,0 -3.164,-1.414 -3.164,-3.172 0,-1.734 1.414,-3.164 3.164,-3.164 1.75,0 3.172,1.43 3.172,3.164"
         fill="#d08876"
         id="path32" />
      <path
         d="m 256.156,206.888 c 0,1.75 -1.422,3.172 -3.164,3.172 -1.75,0 -3.172,-1.422 -3.172,-3.172 0,-1.75 1.422,-3.164 3.172,-3.164 1.742,0 3.164,1.414 3.164,3.164"
         fill="#d08876"
         id="path33" />
      <path
         d="m 152.898,160.271 c 0,16.312 -13.227,29.547 -29.539,29.547 -16.32,0 -29.547,-13.235 -29.547,-29.547 0,-16.312 13.227,-29.547 29.547,-29.547 16.312,0 29.539,13.235 29.539,29.547"
         fill="#ab2430"
         id="path34" />
      <path
         d="m 113.812,148.052 c 0,1.75 -1.421,3.172 -3.164,3.172 -1.75,0 -3.171,-1.422 -3.171,-3.172 0,-1.75 1.421,-3.164 3.171,-3.164 1.743,0 3.164,1.414 3.164,3.164"
         fill="#d08876"
         id="path35" />
      <path
         d="m 126.523,144.888 c 0,1.75 -1.422,3.164 -3.164,3.164 -1.75,0 -3.172,-1.414 -3.172,-3.164 0,-1.75 1.422,-3.172 3.172,-3.172 1.742,0 3.164,1.422 3.164,3.172"
         fill="#d08876"
         id="path36" />
      <path
         d="m 126.531,157.107 c 0,1.742 -1.422,3.164 -3.172,3.164 -1.75,0 -3.172,-1.422 -3.172,-3.164 0,-1.75 1.422,-3.18 3.172,-3.18 1.75,0 3.172,1.43 3.172,3.18"
         fill="#d08876"
         id="path37" />
      <path
         d="m 116.406,165.591 c 0,1.75 -1.422,3.172 -3.164,3.172 -1.75,0 -3.172,-1.422 -3.172,-3.172 0,-1.75 1.422,-3.164 3.172,-3.164 1.742,0 3.164,1.414 3.164,3.164"
         fill="#d08876"
         id="path38" />
      <path
         d="m 123.359,171.927 c 0,1.75 -1.422,3.172 -3.172,3.172 -1.75,0 -3.172,-1.422 -3.172,-3.172 0,-1.75 1.422,-3.164 3.172,-3.164 1.75,0 3.172,1.414 3.172,3.164"
         fill="#d08876"
         id="path39" />
      <path
         d="m 136.453,165.591 c 0,1.75 -1.414,3.172 -3.164,3.172 -1.75,0 -3.172,-1.422 -3.172,-3.172 0,-1.75 1.422,-3.164 3.172,-3.164 1.75,0 3.164,1.414 3.164,3.164"
         fill="#d08876"
         id="path40" />
      <path
         d="m 139.633,153.927 c 0,1.75 -1.422,3.18 -3.172,3.18 -1.75,0 -3.172,-1.43 -3.172,-3.18 0,-1.742 1.422,-3.164 3.172,-3.164 1.75,0 3.172,1.422 3.172,3.164"
         fill="#d08876"
         id="path41" />
      <path
         d="m 136.461,175.099 c 0,1.75 -1.414,3.164 -3.164,3.164 -1.75,0 -3.172,-1.414 -3.172,-3.164 0,-1.758 1.422,-3.172 3.172,-3.172 1.75,0 3.164,1.414 3.164,3.172"
         fill="#d08876"
         id="path42" />
      <path
         d="m 145.953,261.693 c 0,16.32 -13.227,29.555 -29.539,29.555 -16.32,0 -29.547,-13.235 -29.547,-29.555 0,-16.305 13.227,-29.539 29.547,-29.539 16.312,0 29.539,13.234 29.539,29.539"
         fill="#ab2430"
         id="path43" />
      <path
         d="m 106.875,249.474 c 0,1.75 -1.422,3.164 -3.172,3.164 -1.75,0 -3.172,-1.414 -3.172,-3.164 0,-1.742 1.422,-3.172 3.172,-3.172 1.75,0 3.172,1.43 3.172,3.172"
         fill="#d08876"
         id="path44" />
      <path
         d="m 119.578,246.302 c 0,1.758 -1.422,3.172 -3.164,3.172 -1.758,0 -3.172,-1.414 -3.172,-3.172 0,-1.734 1.414,-3.164 3.172,-3.164 1.742,0 3.164,1.43 3.164,3.164"
         fill="#d08876"
         id="path45" />
      <path
         d="m 119.586,258.529 c 0,1.75 -1.422,3.164 -3.172,3.164 -1.75,0 -3.164,-1.414 -3.164,-3.164 0,-1.75 1.414,-3.172 3.164,-3.172 1.75,0 3.172,1.422 3.172,3.172"
         fill="#d08876"
         id="path46" />
      <path
         d="m 109.461,267.013 c 0,1.75 -1.414,3.164 -3.164,3.164 -1.75,0 -3.172,-1.414 -3.172,-3.164 0,-1.742 1.422,-3.172 3.172,-3.172 1.75,0 3.164,1.43 3.164,3.172"
         fill="#d08876"
         id="path47" />
      <path
         d="m 116.414,273.357 c 0,1.742 -1.422,3.164 -3.164,3.164 -1.758,0 -3.172,-1.422 -3.172,-3.164 0,-1.75 1.414,-3.18 3.172,-3.18 1.742,0 3.164,1.43 3.164,3.18"
         fill="#d08876"
         id="path48" />
      <path
         d="m 129.516,267.013 c 0,1.75 -1.422,3.164 -3.164,3.164 -1.758,0 -3.18,-1.414 -3.18,-3.164 0,-1.742 1.422,-3.172 3.18,-3.172 1.742,0 3.164,1.43 3.164,3.172"
         fill="#d08876"
         id="path49" />
      <path
         d="m 132.688,255.357 c 0,1.75 -1.422,3.172 -3.172,3.172 -1.75,0 -3.164,-1.422 -3.164,-3.172 0,-1.75 1.414,-3.172 3.164,-3.172 1.75,0 3.172,1.422 3.172,3.172"
         fill="#d08876"
         id="path50" />
      <path
         d="m 129.516,276.521 c 0,1.758 -1.422,3.172 -3.164,3.172 -1.75,0 -3.172,-1.414 -3.172,-3.172 0,-1.742 1.422,-3.164 3.172,-3.164 1.742,0 3.164,1.422 3.164,3.164"
         fill="#d08876"
         id="path51" />
      <path
         d="m 229.891,258.99 c 0,16.305 -13.227,29.539 -29.547,29.539 -16.312,0 -29.539,-13.234 -29.539,-29.539 0,-16.32 13.227,-29.555 29.539,-29.555 16.32,0 29.547,13.235 29.547,29.555"
         fill="#ab2430"
         id="path52" />
      <path
         d="m 190.805,246.771 c 0,1.75 -1.422,3.164 -3.164,3.164 -1.75,0 -3.172,-1.414 -3.172,-3.164 0,-1.75 1.422,-3.172 3.172,-3.172 1.742,0 3.164,1.422 3.164,3.172"
         fill="#d08876"
         id="path53" />
      <path
         d="m 203.516,243.599 c 0,1.758 -1.422,3.172 -3.172,3.172 -1.742,0 -3.164,-1.414 -3.164,-3.172 0,-1.742 1.422,-3.164 3.164,-3.164 1.75,0 3.172,1.422 3.172,3.164"
         fill="#d08876"
         id="path54" />
      <path
         d="m 203.523,255.818 c 0,1.742 -1.422,3.172 -3.172,3.172 -1.75,0 -3.164,-1.43 -3.164,-3.172 0,-1.75 1.414,-3.164 3.164,-3.164 1.75,0 3.172,1.414 3.172,3.164"
         fill="#d08876"
         id="path55" />
      <path
         d="m 193.398,264.302 c 0,1.75 -1.422,3.172 -3.164,3.172 -1.75,0 -3.172,-1.422 -3.172,-3.172 0,-1.75 1.422,-3.164 3.172,-3.164 1.742,0 3.164,1.414 3.164,3.164"
         fill="#d08876"
         id="path56" />
      <path
         d="m 200.344,270.638 c 0,1.75 -1.414,3.172 -3.156,3.172 -1.758,0 -3.18,-1.422 -3.18,-3.172 0,-1.734 1.422,-3.164 3.18,-3.164 1.742,0 3.156,1.43 3.156,3.164"
         fill="#d08876"
         id="path57" />
      <path
         d="m 213.445,264.302 c 0,1.75 -1.414,3.172 -3.164,3.172 -1.75,0 -3.164,-1.422 -3.164,-3.172 0,-1.75 1.414,-3.164 3.164,-3.164 1.75,0 3.164,1.414 3.164,3.164"
         fill="#d08876"
         id="path58" />
      <path
         d="m 216.625,252.638 c 0,1.758 -1.422,3.18 -3.172,3.18 -1.75,0 -3.172,-1.422 -3.172,-3.18 0,-1.734 1.422,-3.164 3.172,-3.164 1.75,0 3.172,1.43 3.172,3.164"
         fill="#d08876"
         id="path59" />
      <path
         d="m 213.453,273.81 c 0,1.75 -1.414,3.18 -3.164,3.18 -1.75,0 -3.172,-1.43 -3.172,-3.18 0,-1.742 1.422,-3.164 3.172,-3.164 1.75,0 3.164,1.422 3.164,3.164"
         fill="#d08876"
         id="path60" />
      <path
         d="m 369.633,168.185 c 0,16.32 -13.227,29.555 -29.539,29.555 -16.32,0 -29.547,-13.235 -29.547,-29.555 0,-16.305 13.227,-29.539 29.547,-29.539 16.312,0 29.539,13.234 29.539,29.539"
         fill="#ab2430"
         id="path61" />
      <path
         d="m 330.547,155.974 c 0,1.742 -1.414,3.172 -3.172,3.172 -1.742,0 -3.164,-1.43 -3.164,-3.172 0,-1.75 1.422,-3.164 3.164,-3.164 1.758,0 3.172,1.414 3.172,3.164"
         fill="#d08876"
         id="path62" />
      <path
         d="m 343.258,152.81 c 0,1.742 -1.422,3.164 -3.164,3.164 -1.75,0 -3.172,-1.422 -3.172,-3.164 0,-1.75 1.422,-3.18 3.172,-3.18 1.742,0 3.164,1.43 3.164,3.18"
         fill="#d08876"
         id="path63" />
      <path
         d="m 343.266,165.021 c 0,1.75 -1.422,3.164 -3.172,3.164 -1.75,0 -3.172,-1.414 -3.172,-3.164 0,-1.742 1.422,-3.172 3.172,-3.172 1.75,0 3.172,1.43 3.172,3.172"
         fill="#d08876"
         id="path64" />
      <path
         d="m 333.148,173.513 c 0,1.742 -1.43,3.172 -3.172,3.172 -1.75,0 -3.172,-1.43 -3.172,-3.172 0,-1.75 1.422,-3.164 3.172,-3.164 1.742,0 3.172,1.414 3.172,3.164"
         fill="#d08876"
         id="path65" />
      <path
         d="m 340.094,179.849 c 0,1.75 -1.422,3.172 -3.172,3.172 -1.742,0 -3.172,-1.422 -3.172,-3.172 0,-1.75 1.43,-3.164 3.172,-3.164 1.75,0 3.172,1.414 3.172,3.164"
         fill="#d08876"
         id="path66" />
      <path
         d="m 353.195,173.513 c 0,1.742 -1.422,3.172 -3.164,3.172 -1.75,0 -3.172,-1.43 -3.172,-3.172 0,-1.75 1.422,-3.164 3.172,-3.164 1.742,0 3.164,1.414 3.164,3.164"
         fill="#d08876"
         id="path67" />
      <path
         d="m 356.367,161.849 c 0,1.75 -1.422,3.172 -3.164,3.172 -1.758,0 -3.172,-1.422 -3.172,-3.172 0,-1.75 1.414,-3.164 3.172,-3.164 1.742,0 3.164,1.414 3.164,3.164"
         fill="#d08876"
         id="path68" />
      <path
         d="m 353.203,183.021 c 0,1.75 -1.422,3.164 -3.172,3.164 -1.75,0 -3.172,-1.414 -3.172,-3.164 0,-1.75 1.422,-3.172 3.172,-3.172 1.75,0 3.172,1.422 3.172,3.172"
         fill="#d08876"
         id="path69" />
      <path
         d="m 362.867,264.865 c 0,16.32 -13.227,29.547 -29.539,29.547 -16.32,0 -29.547,-13.227 -29.547,-29.547 0,-16.312 13.227,-29.547 29.547,-29.547 16.312,0 29.539,13.235 29.539,29.547"
         fill="#ab2430"
         id="path70" />
      <path
         d="m 323.781,252.638 c 0,1.758 -1.422,3.18 -3.164,3.18 -1.758,0 -3.172,-1.422 -3.172,-3.18 0,-1.734 1.414,-3.164 3.172,-3.164 1.742,0 3.164,1.43 3.164,3.164"
         fill="#d08876"
         id="path71" />
      <path
         d="m 336.492,249.474 c 0,1.758 -1.422,3.18 -3.164,3.18 -1.758,0 -3.172,-1.422 -3.172,-3.18 0,-1.742 1.414,-3.164 3.172,-3.164 1.742,0 3.164,1.422 3.164,3.164"
         fill="#d08876"
         id="path72" />
      <path
         d="m 336.492,261.693 c 0,1.75 -1.414,3.172 -3.164,3.172 -1.758,0 -3.172,-1.422 -3.172,-3.172 0,-1.734 1.414,-3.164 3.172,-3.164 1.75,0 3.164,1.43 3.164,3.164"
         fill="#d08876"
         id="path73" />
      <path
         d="m 326.375,270.177 c 0,1.75 -1.422,3.18 -3.172,3.18 -1.75,0 -3.164,-1.43 -3.164,-3.18 0,-1.734 1.414,-3.164 3.164,-3.164 1.75,0 3.172,1.43 3.172,3.164"
         fill="#d08876"
         id="path74" />
      <path
         d="m 333.328,276.521 c 0,1.758 -1.43,3.172 -3.172,3.172 -1.75,0 -3.172,-1.414 -3.172,-3.172 0,-1.742 1.422,-3.164 3.172,-3.164 1.742,0 3.172,1.422 3.172,3.164"
         fill="#d08876"
         id="path75" />
      <path
         d="m 346.43,270.177 c 0,1.75 -1.422,3.18 -3.172,3.18 -1.75,0 -3.172,-1.43 -3.172,-3.18 0,-1.734 1.422,-3.164 3.172,-3.164 1.75,0 3.172,1.43 3.172,3.164"
         fill="#d08876"
         id="path76" />
      <path
         d="m 349.594,258.529 c 0,1.75 -1.422,3.164 -3.164,3.164 -1.75,0 -3.172,-1.414 -3.172,-3.164 0,-1.75 1.422,-3.172 3.172,-3.172 1.742,0 3.164,1.422 3.164,3.172"
         fill="#d08876"
         id="path77" />
      <path
         d="m 346.43,279.693 c 0,1.75 -1.422,3.172 -3.164,3.172 -1.75,0 -3.172,-1.422 -3.172,-3.172 0,-1.75 1.422,-3.164 3.172,-3.164 1.742,0 3.164,1.414 3.164,3.164"
         fill="#d08876"
         id="path78" />
      <path
         d="m 256.898,335.052 c 0,16.32 -13.234,29.555 -29.547,29.555 -16.312,0 -29.539,-13.235 -29.539,-29.555 0,-16.305 13.227,-29.539 29.539,-29.539 16.313,0 29.547,13.234 29.547,29.539"
         fill="#ab2430"
         id="path79" />
      <path
         d="m 217.812,322.833 c 0,1.75 -1.421,3.181 -3.171,3.181 -1.75,0 -3.173,-1.431 -3.173,-3.181 0,-1.741 1.423,-3.164 3.173,-3.164 1.75,0 3.171,1.423 3.171,3.164"
         fill="#d08876"
         id="path80" />
      <path
         d="m 230.516,319.669 c 0,1.75 -1.422,3.164 -3.164,3.164 -1.75,0 -3.172,-1.414 -3.172,-3.164 0,-1.742 1.422,-3.172 3.172,-3.172 1.742,0 3.164,1.43 3.164,3.172"
         fill="#d08876"
         id="path81" />
      <path
         d="m 230.523,331.888 c 0,1.75 -1.43,3.164 -3.172,3.164 -1.742,0 -3.164,-1.414 -3.164,-3.164 0,-1.75 1.422,-3.172 3.164,-3.172 1.742,0 3.172,1.422 3.172,3.172"
         fill="#d08876"
         id="path82" />
      <path
         d="m 220.398,340.373 c 0,1.75 -1.414,3.18 -3.164,3.18 -1.75,0 -3.172,-1.43 -3.172,-3.18 0,-1.742 1.422,-3.164 3.172,-3.164 1.75,0 3.164,1.422 3.164,3.164"
         fill="#d08876"
         id="path83" />
      <path
         d="m 227.352,346.716 c 0,1.742 -1.422,3.172 -3.164,3.172 -1.758,0 -3.172,-1.43 -3.172,-3.172 0,-1.75 1.414,-3.164 3.172,-3.164 1.742,0 3.164,1.414 3.164,3.164"
         fill="#d08876"
         id="path84" />
      <path
         d="m 240.453,340.373 c 0,1.75 -1.422,3.18 -3.164,3.18 -1.75,0 -3.172,-1.43 -3.172,-3.18 0,-1.742 1.422,-3.164 3.172,-3.164 1.742,0 3.164,1.422 3.164,3.164"
         fill="#d08876"
         id="path85" />
      <path
         d="m 243.625,328.716 c 0,1.75 -1.422,3.172 -3.164,3.172 -1.75,0 -3.172,-1.422 -3.172,-3.172 0,-1.75 1.422,-3.164 3.172,-3.164 1.742,0 3.164,1.414 3.164,3.164"
         fill="#d08876"
         id="path86" />
      <path
         d="m 240.461,349.888 c 0,1.75 -1.422,3.164 -3.172,3.164 -1.742,0 -3.164,-1.414 -3.164,-3.164 0,-1.758 1.422,-3.172 3.164,-3.172 1.75,0 3.172,1.414 3.172,3.172"
         fill="#d08876"
         id="path87" />
    </g>
  </g>
</svg>
